<svg xmlns="http://www.w3.org/2000/svg" viewBox="0 0 32 32">
  <path fill="#25D366" d="M16 3C9.4 3 4 8.2 4 14.7c0 2.6.9 5 2.4 7l-1.6 5.6 5.8-1.5c1.9 1 4.1 1.5 6.4 1.5 6.6 0 12-5.2 12-11.7S22.6 3 16 3z"/>
  <path fill="#fff" d="M24.2 19.2c-.3-.1-1.8-.9-2.1-1s-.5-.1-.7.1-.8 1-1 1.2-.4.2-.7.1c-.3-.1-1.2-.4-2.3-1.3-.9-.7-1.5-1.6-1.7-1.9s0-.5.1-.7c.1-.1.3-.4.4-.6.1-.2.2-.3.3-.5.1-.2 0-.4 0-.5s-.7-1.7-1-2.3c-.3-.6-.6-.5-.7-.5h-.6c-.2 0-.5.1-.7.3s-.9.9-.9 2.1.9 2.4 1 2.6c.1.2 1.8 2.8 4.4 3.9.6.3 1.1.5 1.5.6.6.2 1.2.2 1.6.1.5-.1 1.8-.7 2.1-1.3.3-.6.3-1.2.2-1.3-.1-.1-.3-.2-.6-.3z"/>
</svg>